<svg id="SvgjsSvg1156" width="5000" height="3700" xmlns="http://www.w3.org/2000/svg" version="1.1" xmlns:xlink="http://www.w3.org/1999/xlink" xmlns:svgjs="http://svgjs.com/svgjs" viewBox="0 0 335.296875 248.15625"><defs id="SvgjsDefs1157"></defs><g id="SvgjsG1159" transform="rotate(0 167.640625 75)"><svg height="150" viewBox="0 0 535 901" xmlns="http://www.w3.org/2000/svg" version="1.1" xmlns:xlink="http://www.w3.org/1999/xlink" xmlns:svgjs="http://svgjs.com/svgjs" preserveAspectRatio="none" width="89.0625" x="123.109375" y="0"><g><svg data-color="1" xmlns="http://www.w3.org/2000/svg" xmlns:xlink="http://www.w3.org/1999/xlink" xml:space="preserve" version="1.1" style="shape-rendering:geometricPrecision;text-rendering:geometricPrecision;image-rendering:optimizeQuality;" viewBox="0 0 535 901" x="0px" y="0px" fill-rule="evenodd" clip-rule="evenodd" fill="#FFFFFF"><g><path class="fil0" d="M372 12c28,-23 215,-16 150,187 -59,183 -98,146 -79,353 24,266 -134,374 -89,237 12,-37 0,81 34,2 29,-70 43,-232 4,-299 -33,-58 -83,-74 -62,-84 141,-66 52,-126 82,-172 16,-25 111,-121 39,-187 -31,-29 -87,-30 -79,-37z"></path><path class="fil0" d="M327 24c-10,18 -72,19 -28,25 67,9 124,-20 80,14 -117,90 -302,-114 -350,67 -45,168 153,167 87,310 -12,27 0,-52 -40,-105 -52,-67 -90,-124 -71,-219 19,-95 112,-138 210,-105 77,26 122,-3 112,13z"></path><path class="fil0" d="M112 477l-20 91c2,175 140,456 160,274 6,-49 -12,20 -24,19 -35,-2 -110,-237 -113,-331l-3 -53z"></path><path class="fil0" d="M245 801c0,-13 5,-392 77,-271 53,89 41,272 34,231l-26 -108c8,153 -50,220 -65,90 -6,-47 22,86 42,-36 25,-155 -16,-160 -47,24l-15 70z"></path><path class="fil0" d="M309 338c-10,-22 -76,68 -168,-19 -49,-45 16,63 56,71 46,8 112,-51 112,-52z"></path></g></svg></g><defs></defs></svg></g><g id="SvgjsG1161" transform="rotate(0 167.6484375 198.0546875)"><svg xmlns="http://www.w3.org/2000/svg" xmlns:xlink="http://www.w3.org/1999/xlink" width="78.109375" viewBox="1.2799999713897705 -0.12000000476837158 78.12000274658203 30.1200008392334" overflow="visible" style="overflow: visible;" transform="" version="1.1" xmlns:svgjs="http://svgjs.com/svgjs" preserveAspectRatio="none" height="30.109375" x="128.59375" y="183" fill="#000000" stroke="none"><path stroke="none" fill="#FFFFFF" d="M22.32 30L19.32 22.40L8.20 22.40L5.12 30L1.28 30L13.92-0.12L14.16-0.12L26.80 30L22.32 30ZM9.60 19.04L18 19.04L13.88 8.48L9.60 19.04ZM32.20 1.08L49.36 1.08L49.36 4.80L36.08 4.80L36.08 14L47.72 14L47.72 17.72L36.08 17.72L36.08 30L32.20 30L32.20 1.08ZM55.76 30L55.76 1.08L63.68 1.08L63.68 1.08Q69.08 1.08 72.62 3.22L72.62 3.22L72.62 3.22Q76.16 5.36 77.78 8.74L77.78 8.74L77.78 8.74Q79.40 12.12 79.40 15.88L79.40 15.88L79.40 15.88Q79.40 20.08 77.44 23.30L77.44 23.30L77.44 23.30Q75.48 26.52 72.20 28.26L72.20 28.26L72.20 28.26Q68.92 30 65.08 30L65.08 30L55.76 30ZM59.64 26.24L64.32 26.24L64.32 26.24Q67.52 26.24 70.04 24.98L70.04 24.98L70.04 24.98Q72.56 23.72 73.98 21.32L73.98 21.32L73.98 21.32Q75.40 18.92 75.40 15.60L75.40 15.60L75.40 15.60Q75.40 12.20 73.92 9.76L73.92 9.76L73.92 9.76Q72.44 7.32 69.98 6.06L69.98 6.06L69.98 6.06Q67.52 4.80 64.68 4.80L64.68 4.80L59.64 4.80L59.64 26.24Z" transform="rotate(0 40.340001344680786 14.940000414848328)"></path><defs id="SvgjsDefs1160"></defs></svg></g><g id="SvgjsG1163" transform="rotate(0 167.6484375 236.6328125)"><svg xmlns="http://www.w3.org/2000/svg" xmlns:xlink="http://www.w3.org/1999/xlink" width="335.296875" viewBox="0.9200000166893005 -0.18000000715255737 335.29998779296875 17.059999465942383" overflow="visible" style="overflow: visible;" transform="" version="1.1" xmlns:svgjs="http://svgjs.com/svgjs" preserveAspectRatio="none" height="17.046875" x="0" y="228.109375" fill="#000000" stroke="none"><path stroke="none" fill="#FFFFFF" d="M10.80 13.50L9.13 9.27L3.49 9.27L1.80 13.50L0.92 13.50L6.32 0.16L6.39 0.16L11.79 13.50L10.80 13.50ZM3.82 8.44L8.80 8.44L6.34 2.16L3.82 8.44ZM17.39 12.91L17.39 12.91Q18.52 12.91 19.44 12.13L19.44 12.13L19.87 12.74L19.87 12.74Q19.35 13.16 18.69 13.40L18.69 13.40L18.69 13.40Q18.04 13.64 17.37 13.64L17.37 13.64L17.37 13.64Q16.29 13.64 15.44 13.16L15.44 13.16L15.44 13.16Q14.58 12.67 14.10 11.84L14.10 11.84L14.10 11.84Q13.63 11.00 13.63 9.95L13.63 9.95L13.63 9.95Q13.63 8.95 14.13 8.09L14.13 8.09L14.13 8.09Q14.63 7.24 15.50 6.73L15.50 6.73L15.50 6.73Q16.36 6.23 17.39 6.23L17.39 6.23L17.39 6.23Q18.61 6.23 19.48 6.95L19.48 6.95L19.48 6.95Q20.34 7.67 20.74 8.89L20.74 8.89L14.72 11.21L14.72 11.21Q15.07 11.97 15.78 12.44L15.78 12.44L15.78 12.44Q16.49 12.91 17.39 12.91L17.39 12.91ZM17.33 6.95L17.33 6.95Q16.54 6.95 15.88 7.34L15.88 7.34L15.88 7.34Q15.21 7.74 14.83 8.42L14.83 8.42L14.83 8.42Q14.45 9.09 14.45 9.92L14.45 9.92L14.45 9.92Q14.45 10.30 14.53 10.58L14.53 10.58L19.71 8.55L19.71 8.55Q19.37 7.83 18.76 7.39L18.76 7.39L18.76 7.39Q18.14 6.95 17.33 6.95L17.33 6.95ZM24.73 13.64L24.73 13.64Q24.05 13.64 23.41 13.41L23.41 13.41L23.41 13.41Q22.77 13.18 22.37 12.69L22.37 12.69L22.77 12.13L22.77 12.13Q23.13 12.51 23.63 12.74L23.63 12.74L23.63 12.74Q24.14 12.96 24.68 12.96L24.68 12.96L24.68 12.96Q25.36 12.96 25.83 12.65L25.83 12.65L25.83 12.65Q26.30 12.33 26.30 11.66L26.30 11.66L26.30 11.66Q26.30 11.20 26.05 10.92L26.05 10.92L26.05 10.92Q25.79 10.64 25.47 10.50L25.47 10.50L25.47 10.50Q25.15 10.37 24.43 10.13L24.43 10.13L24.43 10.13Q23.58 9.85 23.12 9.41L23.12 9.41L23.12 9.41Q22.66 8.96 22.66 8.23L22.66 8.23L22.66 8.23Q22.66 7.36 23.27 6.83L23.27 6.83L23.27 6.83Q23.87 6.30 24.80 6.30L24.80 6.30L24.80 6.30Q26.10 6.30 26.91 7.09L26.91 7.09L26.53 7.69L26.53 7.69Q26.26 7.33 25.82 7.16L25.82 7.16L25.82 7.16Q25.38 7.00 24.93 6.98L24.93 6.98L24.93 6.98Q24.39 6.98 23.95 7.28L23.95 7.28L23.95 7.28Q23.51 7.58 23.51 8.12L23.51 8.12L23.51 8.12Q23.51 8.68 23.90 8.96L23.90 8.96L23.90 8.96Q24.30 9.23 25.11 9.52L25.11 9.52L25.11 9.52Q26.10 9.85 26.62 10.25L26.62 10.25L26.62 10.25Q27.14 10.66 27.14 11.48L27.14 11.48L27.14 11.48Q27.14 12.46 26.52 13.05L26.52 13.05L26.52 13.05Q25.90 13.64 24.73 13.64L24.73 13.64ZM30.40 3.37L31.27 3.37L31.27 6.55L33.44 6.55L33.44 7.24L31.27 7.24L31.27 13.50L30.40 13.50L30.40 7.24L28.91 7.24L28.91 6.55L30.40 6.55L30.40 3.37ZM39.33 6.26L39.33 6.26Q40.30 6.26 40.91 6.85L40.91 6.85L40.91 6.85Q41.53 7.43 41.56 8.37L41.56 8.37L41.56 13.50L40.70 13.50L40.70 8.60L40.70 8.60Q40.66 7.90 40.25 7.46L40.25 7.46L40.25 7.46Q39.83 7.02 39.06 7.00L39.06 7.00L39.06 7.00Q38.36 7.00 37.75 7.36L37.75 7.36L37.75 7.36Q37.13 7.72 36.77 8.34L36.77 8.34L36.77 8.34Q36.40 8.96 36.40 9.72L36.40 9.72L36.40 13.50L35.55 13.50L35.55-0.18L36.38-0.18L36.38 7.92L36.38 7.92Q36.77 7.20 37.57 6.73L37.57 6.73L37.57 6.73Q38.36 6.26 39.33 6.26L39.33 6.26ZM47.84 12.91L47.84 12.91Q48.98 12.91 49.90 12.13L49.90 12.13L50.33 12.74L50.33 12.74Q49.81 13.16 49.15 13.40L49.15 13.40L49.15 13.40Q48.49 13.64 47.83 13.64L47.83 13.64L47.83 13.64Q46.75 13.64 45.89 13.16L45.89 13.16L45.89 13.16Q45.04 12.67 44.56 11.84L44.56 11.84L44.56 11.84Q44.08 11.00 44.08 9.95L44.08 9.95L44.08 9.95Q44.08 8.95 44.59 8.09L44.59 8.09L44.59 8.09Q45.09 7.24 45.95 6.73L45.95 6.73L45.95 6.73Q46.82 6.23 47.84 6.23L47.84 6.23L47.84 6.23Q49.07 6.23 49.93 6.95L49.93 6.95L49.93 6.95Q50.80 7.67 51.19 8.89L51.19 8.89L45.18 11.21L45.18 11.21Q45.52 11.97 46.23 12.44L46.23 12.44L46.23 12.44Q46.94 12.91 47.84 12.91L47.84 12.91ZM47.79 6.95L47.79 6.95Q47.00 6.95 46.33 7.34L46.33 7.34L46.33 7.34Q45.67 7.74 45.29 8.42L45.29 8.42L45.29 8.42Q44.91 9.09 44.91 9.92L44.91 9.92L44.91 9.92Q44.91 10.30 44.98 10.58L44.98 10.58L50.17 8.55L50.17 8.55Q49.82 7.83 49.21 7.39L49.21 7.39L49.21 7.39Q48.60 6.95 47.79 6.95L47.79 6.95ZM54.23 3.37L55.10 3.37L55.10 6.55L57.28 6.55L57.28 7.24L55.10 7.24L55.10 13.50L54.23 13.50L54.23 7.24L52.74 7.24L52.74 6.55L54.23 6.55L54.23 3.37ZM59.38 6.46L60.23 6.46L60.23 13.50L59.38 13.50L59.38 6.46ZM59.20 3.87L59.20 3.87Q59.20 3.62 59.39 3.45L59.39 3.45L59.39 3.45Q59.58 3.28 59.83 3.28L59.83 3.28L59.83 3.28Q60.08 3.28 60.26 3.45L60.26 3.45L60.26 3.45Q60.44 3.62 60.44 3.87L60.44 3.87L60.44 3.87Q60.44 4.14 60.26 4.31L60.26 4.31L60.26 4.31Q60.08 4.48 59.83 4.48L59.83 4.48L59.83 4.48Q59.58 4.48 59.39 4.30L59.39 4.30L59.39 4.30Q59.20 4.12 59.20 3.87L59.20 3.87ZM68.87 12.82L68.87 12.82Q68.38 13.21 67.76 13.43L67.76 13.43L67.76 13.43Q67.14 13.64 66.49 13.64L66.49 13.64L66.49 13.64Q65.43 13.64 64.58 13.17L64.58 13.17L64.58 13.17Q63.72 12.69 63.23 11.85L63.23 11.85L63.23 11.85Q62.75 11.02 62.75 9.97L62.75 9.97L62.75 9.97Q62.75 8.93 63.24 8.09L63.24 8.09L63.24 8.09Q63.74 7.25 64.58 6.78L64.58 6.78L64.58 6.78Q65.43 6.30 66.42 6.30L66.42 6.30L66.42 6.30Q67.88 6.30 68.89 7.13L68.89 7.13L68.44 7.70L68.44 7.70Q67.54 7.00 66.47 7.00L66.47 7.00L66.47 7.00Q65.68 7.00 65.03 7.40L65.03 7.40L65.03 7.40Q64.37 7.79 63.98 8.48L63.98 8.48L63.98 8.48Q63.59 9.16 63.59 9.97L63.59 9.97L63.59 9.97Q63.59 10.78 63.98 11.46L63.98 11.46L63.98 11.46Q64.37 12.13 65.04 12.53L65.04 12.53L65.04 12.53Q65.72 12.92 66.55 12.92L66.55 12.92L66.55 12.92Q67.55 12.92 68.40 12.29L68.40 12.29L68.87 12.82ZM72.88 13.64L72.88 13.64Q72.20 13.64 71.56 13.41L71.56 13.41L71.56 13.41Q70.92 13.18 70.52 12.69L70.52 12.69L70.92 12.13L70.92 12.13Q71.28 12.51 71.78 12.74L71.78 12.74L71.78 12.74Q72.29 12.96 72.83 12.96L72.83 12.96L72.83 12.96Q73.51 12.96 73.98 12.65L73.98 12.65L73.98 12.65Q74.45 12.33 74.45 11.66L74.45 11.66L74.45 11.66Q74.45 11.20 74.20 10.92L74.20 10.92L74.20 10.92Q73.94 10.64 73.62 10.50L73.62 10.50L73.62 10.50Q73.30 10.37 72.58 10.13L72.58 10.13L72.58 10.13Q71.73 9.85 71.27 9.41L71.27 9.41L71.27 9.41Q70.81 8.96 70.81 8.23L70.81 8.23L70.81 8.23Q70.81 7.36 71.42 6.83L71.42 6.83L71.42 6.83Q72.02 6.30 72.95 6.30L72.95 6.30L72.95 6.30Q74.25 6.30 75.06 7.09L75.06 7.09L74.68 7.69L74.68 7.69Q74.41 7.33 73.97 7.16L73.97 7.16L73.97 7.16Q73.53 7.00 73.08 6.98L73.08 6.98L73.08 6.98Q72.54 6.98 72.10 7.28L72.10 7.28L72.10 7.28Q71.66 7.58 71.66 8.12L71.66 8.12L71.66 8.12Q71.66 8.68 72.05 8.96L72.05 8.96L72.05 8.96Q72.45 9.23 73.26 9.52L73.26 9.52L73.26 9.52Q74.25 9.85 74.77 10.25L74.77 10.25L74.77 10.25Q75.29 10.66 75.29 11.48L75.29 11.48L75.29 11.48Q75.29 12.46 74.67 13.05L74.67 13.05L74.67 13.05Q74.05 13.64 72.88 13.64L72.88 13.64ZM78.82 11.93L77.27 15.68L76.55 15.68L77.94 11.93L78.82 11.93ZM87.43 0.72L94.59 0.72L94.59 1.57L88.31 1.57L88.31 6.84L93.87 6.84L93.87 7.67L88.31 7.67L88.31 13.50L87.43 13.50L87.43 0.72ZM103.50 6.46L104.26 6.46L104.26 13.50L103.41 13.50L103.41 12.01L103.41 12.01Q103.00 12.69 102.15 13.17L102.15 13.17L102.15 13.17Q101.30 13.64 100.31 13.64L100.31 13.64L100.31 13.64Q99.31 13.64 98.49 13.19L98.49 13.19L98.49 13.19Q97.67 12.73 97.19 11.89L97.19 11.89L97.19 11.89Q96.71 11.05 96.71 9.97L96.71 9.97L96.71 9.97Q96.71 8.82 97.21 7.98L97.21 7.98L97.21 7.98Q97.70 7.15 98.58 6.70L98.58 6.70L98.58 6.70Q99.45 6.25 100.55 6.25L100.55 6.25L100.55 6.25Q101.41 6.25 102.20 6.73L102.20 6.73L102.20 6.73Q103.00 7.22 103.41 7.99L103.41 7.99L103.50 6.46ZM100.49 12.92L100.49 12.92Q101.68 12.92 102.51 12.19L102.51 12.19L102.51 12.19Q103.34 11.45 103.41 10.30L103.41 10.30L103.41 9.29L103.41 9.29Q103.19 8.30 102.37 7.63L102.37 7.63L102.37 7.63Q101.54 6.97 100.48 6.97L100.48 6.97L100.48 6.97Q99.67 6.97 99.00 7.34L99.00 7.34L99.00 7.34Q98.33 7.70 97.95 8.38L97.95 8.38L97.95 8.38Q97.56 9.05 97.56 9.94L97.56 9.94L97.56 9.94Q97.56 10.75 97.96 11.43L97.96 11.43L97.96 11.43Q98.35 12.11 99.03 12.52L99.03 12.52L99.03 12.52Q99.70 12.92 100.49 12.92L100.49 12.92ZM112.90 12.82L112.90 12.82Q112.41 13.21 111.79 13.43L111.79 13.43L111.79 13.43Q111.17 13.64 110.52 13.64L110.52 13.64L110.52 13.64Q109.46 13.64 108.60 13.17L108.60 13.17L108.60 13.17Q107.75 12.69 107.26 11.85L107.26 11.85L107.26 11.85Q106.78 11.02 106.78 9.97L106.78 9.97L106.78 9.97Q106.78 8.93 107.27 8.09L107.27 8.09L107.27 8.09Q107.77 7.25 108.61 6.78L108.61 6.78L108.61 6.78Q109.46 6.30 110.45 6.30L110.45 6.30L110.45 6.30Q111.91 6.30 112.91 7.13L112.91 7.13L112.46 7.70L112.46 7.70Q111.56 7.00 110.50 7.00L110.50 7.00L110.50 7.00Q109.71 7.00 109.05 7.40L109.05 7.40L109.05 7.40Q108.40 7.79 108.01 8.48L108.01 8.48L108.01 8.48Q107.62 9.16 107.62 9.97L107.62 9.97L107.62 9.97Q107.62 10.78 108.01 11.46L108.01 11.46L108.01 11.46Q108.40 12.13 109.07 12.53L109.07 12.53L109.07 12.53Q109.75 12.92 110.57 12.92L110.57 12.92L110.57 12.92Q111.58 12.92 112.43 12.29L112.43 12.29L112.90 12.82ZM115.25 6.46L116.10 6.46L116.10 13.50L115.25 13.50L115.25 6.46ZM115.07 3.87L115.07 3.87Q115.07 3.62 115.26 3.45L115.26 3.45L115.26 3.45Q115.45 3.28 115.70 3.28L115.70 3.28L115.70 3.28Q115.96 3.28 116.14 3.45L116.14 3.45L116.14 3.45Q116.32 3.62 116.32 3.87L116.32 3.87L116.32 3.87Q116.32 4.14 116.14 4.31L116.14 4.31L116.14 4.31Q115.96 4.48 115.70 4.48L115.70 4.48L115.70 4.48Q115.45 4.48 115.26 4.30L115.26 4.30L115.26 4.30Q115.07 4.12 115.07 3.87L115.07 3.87ZM125.41 6.46L126.16 6.46L126.16 13.50L125.32 13.50L125.32 12.01L125.32 12.01Q124.90 12.69 124.06 13.17L124.06 13.17L124.06 13.17Q123.21 13.64 122.22 13.64L122.22 13.64L122.22 13.64Q121.21 13.64 120.39 13.19L120.39 13.19L120.39 13.19Q119.57 12.73 119.10 11.89L119.10 11.89L119.10 11.89Q118.62 11.05 118.62 9.97L118.62 9.97L118.62 9.97Q118.62 8.82 119.11 7.98L119.11 7.98L119.11 7.98Q119.61 7.15 120.48 6.70L120.48 6.70L120.48 6.70Q121.36 6.25 122.45 6.25L122.45 6.25L122.45 6.25Q123.32 6.25 124.11 6.73L124.11 6.73L124.11 6.73Q124.90 7.22 125.32 7.99L125.32 7.99L125.41 6.46ZM122.40 12.92L122.40 12.92Q123.59 12.92 124.42 12.19L124.42 12.19L124.42 12.19Q125.24 11.45 125.32 10.30L125.32 10.30L125.32 9.29L125.32 9.29Q125.10 8.30 124.27 7.63L124.27 7.63L124.27 7.63Q123.44 6.97 122.38 6.97L122.38 6.97L122.38 6.97Q121.57 6.97 120.91 7.34L120.91 7.34L120.91 7.34Q120.24 7.70 119.85 8.38L119.85 8.38L119.85 8.38Q119.47 9.05 119.47 9.94L119.47 9.94L119.47 9.94Q119.47 10.75 119.86 11.43L119.86 11.43L119.86 11.43Q120.26 12.11 120.93 12.52L120.93 12.52L120.93 12.52Q121.61 12.92 122.40 12.92L122.40 12.92ZM129.37-0.18L130.21-0.18L130.21 13.50L129.37 13.50L129.37-0.18ZM147.56 13.50L146.54 13.50L143.19 8.06L143.19 8.06Q142.81 8.14 142.24 8.14L142.24 8.14L140.26 8.14L140.26 13.50L139.37 13.50L139.37 0.72L142.29 0.72L142.29 0.72Q143.30 0.72 144.22 1.12L144.22 1.12L144.22 1.12Q145.15 1.51 145.74 2.32L145.74 2.32L145.74 2.32Q146.32 3.13 146.32 4.34L146.32 4.34L146.32 4.34Q146.32 5.51 145.78 6.45L145.78 6.45L145.78 6.45Q145.24 7.40 144.11 7.83L144.11 7.83L147.56 13.50ZM142.18 7.29L142.18 7.29Q143.93 7.29 144.68 6.43L144.68 6.43L144.68 6.43Q145.42 5.56 145.42 4.37L145.42 4.37L145.42 4.37Q145.42 3.62 145.05 2.97L145.05 2.97L145.05 2.97Q144.68 2.32 144 1.94L144 1.94L144 1.94Q143.32 1.57 142.42 1.57L142.42 1.57L140.26 1.57L140.26 7.29L142.18 7.29ZM153.41 12.91L153.41 12.91Q154.55 12.91 155.47 12.13L155.47 12.13L155.90 12.74L155.90 12.74Q155.38 13.16 154.72 13.40L154.72 13.40L154.72 13.40Q154.06 13.64 153.40 13.64L153.40 13.64L153.40 13.64Q152.32 13.64 151.46 13.16L151.46 13.16L151.46 13.16Q150.61 12.67 150.13 11.84L150.13 11.84L150.13 11.84Q149.65 11.00 149.65 9.95L149.65 9.95L149.65 9.95Q149.65 8.95 150.16 8.09L150.16 8.09L150.16 8.09Q150.66 7.24 151.52 6.73L151.52 6.73L151.52 6.73Q152.39 6.23 153.41 6.23L153.41 6.23L153.41 6.23Q154.64 6.23 155.50 6.95L155.50 6.95L155.50 6.95Q156.37 7.67 156.76 8.89L156.76 8.89L150.75 11.21L150.75 11.21Q151.09 11.97 151.80 12.44L151.80 12.44L151.80 12.44Q152.51 12.91 153.41 12.91L153.41 12.91ZM153.36 6.95L153.36 6.95Q152.57 6.95 151.90 7.34L151.90 7.34L151.90 7.34Q151.24 7.74 150.86 8.42L150.86 8.42L150.86 8.42Q150.48 9.09 150.48 9.92L150.48 9.92L150.48 9.92Q150.48 10.30 150.55 10.58L150.55 10.58L155.74 8.55L155.74 8.55Q155.39 7.83 154.78 7.39L154.78 7.39L154.78 7.39Q154.17 6.95 153.36 6.95L153.36 6.95ZM158.80 16.88L158.26 16.36L158.26 16.36Q158.74 15.88 159.01 15.17L159.01 15.17L159.01 15.17Q159.28 14.47 159.28 13.61L159.28 13.61L159.28 6.46L160.15 6.46L160.15 13.59L160.15 13.59Q160.15 15.84 158.80 16.88L158.80 16.88ZM159.10 3.87L159.10 3.87Q159.10 3.62 159.29 3.45L159.29 3.45L159.29 3.45Q159.48 3.28 159.73 3.28L159.73 3.28L159.73 3.28Q159.98 3.28 160.16 3.45L160.16 3.45L160.16 3.45Q160.34 3.62 160.34 3.87L160.34 3.87L160.34 3.87Q160.34 4.14 160.16 4.31L160.16 4.31L160.16 4.31Q159.98 4.48 159.73 4.48L159.73 4.48L159.73 4.48Q159.48 4.48 159.29 4.30L159.29 4.30L159.29 4.30Q159.10 4.12 159.10 3.87L159.10 3.87ZM168.25 6.46L169.09 6.46L169.09 13.50L168.34 13.50L168.28 12.01L168.28 12.01Q167.94 12.74 167.11 13.22L167.11 13.22L167.11 13.22Q166.28 13.70 165.35 13.70L165.35 13.70L165.35 13.70Q164.38 13.70 163.77 13.11L163.77 13.11L163.77 13.11Q163.17 12.53 163.13 11.59L163.13 11.59L163.13 6.46L163.98 6.46L163.98 11.34L163.98 11.34Q164.02 12.06 164.43 12.49L164.43 12.49L164.43 12.49Q164.84 12.92 165.64 12.96L165.64 12.96L165.64 12.96Q166.32 12.96 166.92 12.60L166.92 12.60L166.92 12.60Q167.53 12.24 167.89 11.61L167.89 11.61L167.89 11.61Q168.25 10.98 168.25 10.21L168.25 10.21L168.25 6.46ZM177.43 6.46L178.36 6.46L174.87 13.77L174.76 13.77L171.20 6.46L172.19 6.46L174.85 12.26L177.43 6.46ZM183.55 12.91L183.55 12.91Q184.68 12.91 185.60 12.13L185.60 12.13L186.03 12.74L186.03 12.74Q185.51 13.16 184.85 13.40L184.85 13.40L184.85 13.40Q184.19 13.64 183.53 13.64L183.53 13.64L183.53 13.64Q182.45 13.64 181.59 13.16L181.59 13.16L181.59 13.16Q180.74 12.67 180.26 11.84L180.26 11.84L180.26 11.84Q179.78 11.00 179.78 9.95L179.78 9.95L179.78 9.95Q179.78 8.95 180.29 8.09L180.29 8.09L180.29 8.09Q180.79 7.24 181.66 6.73L181.66 6.73L181.66 6.73Q182.52 6.23 183.55 6.23L183.55 6.23L183.55 6.23Q184.77 6.23 185.63 6.95L185.63 6.95L185.63 6.95Q186.50 7.67 186.89 8.89L186.89 8.89L180.88 11.21L180.88 11.21Q181.22 11.97 181.94 12.44L181.94 12.44L181.94 12.44Q182.65 12.91 183.55 12.91L183.55 12.91ZM183.49 6.95L183.49 6.95Q182.70 6.95 182.03 7.34L182.03 7.34L182.03 7.34Q181.37 7.74 180.99 8.42L180.99 8.42L180.99 8.42Q180.61 9.09 180.61 9.92L180.61 9.92L180.61 9.92Q180.61 10.30 180.68 10.58L180.68 10.58L185.87 8.55L185.87 8.55Q185.53 7.83 184.91 7.39L184.91 7.39L184.91 7.39Q184.30 6.95 183.49 6.95L183.49 6.95ZM193.01 6.26L193.01 6.26Q193.99 6.26 194.60 6.85L194.60 6.85L194.60 6.85Q195.21 7.43 195.25 8.37L195.25 8.37L195.25 13.50L194.38 13.50L194.38 8.60L194.38 8.60Q194.35 7.90 193.93 7.46L193.93 7.46L193.93 7.46Q193.52 7.02 192.74 7.00L192.74 7.00L192.74 7.00Q192.02 7.00 191.42 7.34L191.42 7.34L191.42 7.34Q190.82 7.69 190.45 8.31L190.45 8.31L190.45 8.31Q190.08 8.93 190.08 9.72L190.08 9.72L190.08 13.50L189.23 13.50L189.23 6.46L189.97 6.46L190.04 8.03L190.04 8.03Q190.39 7.22 191.21 6.74L191.21 6.74L191.21 6.74Q192.02 6.26 193.01 6.26L193.01 6.26ZM204.55 6.46L205.31 6.46L205.31 13.50L204.46 13.50L204.46 12.01L204.46 12.01Q204.05 12.69 203.20 13.17L203.20 13.17L203.20 13.17Q202.36 13.64 201.37 13.64L201.37 13.64L201.37 13.64Q200.36 13.64 199.54 13.19L199.54 13.19L199.54 13.19Q198.72 12.73 198.24 11.89L198.24 11.89L198.24 11.89Q197.77 11.05 197.77 9.97L197.77 9.97L197.77 9.97Q197.77 8.82 198.26 7.98L198.26 7.98L198.26 7.98Q198.76 7.15 199.63 6.70L199.63 6.70L199.63 6.70Q200.50 6.25 201.60 6.25L201.60 6.25L201.60 6.25Q202.46 6.25 203.26 6.73L203.26 6.73L203.26 6.73Q204.05 7.22 204.46 7.99L204.46 7.99L204.55 6.46ZM201.55 12.92L201.55 12.92Q202.73 12.92 203.56 12.19L203.56 12.19L203.56 12.19Q204.39 11.45 204.46 10.30L204.46 10.30L204.46 9.29L204.46 9.29Q204.25 8.30 203.42 7.63L203.42 7.63L203.42 7.63Q202.59 6.97 201.53 6.97L201.53 6.97L201.53 6.97Q200.72 6.97 200.05 7.34L200.05 7.34L200.05 7.34Q199.39 7.70 199.00 8.38L199.00 8.38L199.00 8.38Q198.61 9.05 198.61 9.94L198.61 9.94L198.61 9.94Q198.61 10.75 199.01 11.43L199.01 11.43L199.01 11.43Q199.40 12.11 200.08 12.52L200.08 12.52L200.08 12.52Q200.75 12.92 201.55 12.92L201.55 12.92ZM209.21 3.37L210.08 3.37L210.08 6.55L212.26 6.55L212.26 7.24L210.08 7.24L210.08 13.50L209.21 13.50L209.21 7.24L207.72 7.24L207.72 6.55L209.21 6.55L209.21 3.37ZM214.36 6.46L215.21 6.46L215.21 13.50L214.36 13.50L214.36 6.46ZM214.18 3.87L214.18 3.87Q214.18 3.62 214.37 3.45L214.37 3.45L214.37 3.45Q214.56 3.28 214.81 3.28L214.81 3.28L214.81 3.28Q215.06 3.28 215.24 3.45L215.24 3.45L215.24 3.45Q215.42 3.62 215.42 3.87L215.42 3.87L215.42 3.87Q215.42 4.14 215.24 4.31L215.24 4.31L215.24 4.31Q215.06 4.48 214.81 4.48L214.81 4.48L214.81 4.48Q214.56 4.48 214.37 4.30L214.37 4.30L214.37 4.30Q214.18 4.12 214.18 3.87L214.18 3.87ZM217.73 9.94L217.73 9.94Q217.73 8.93 218.22 8.07L218.22 8.07L218.22 8.07Q218.72 7.22 219.58 6.72L219.58 6.72L219.58 6.72Q220.45 6.23 221.49 6.23L221.49 6.23L221.49 6.23Q222.53 6.23 223.40 6.72L223.40 6.72L223.40 6.72Q224.26 7.22 224.75 8.07L224.75 8.07L224.75 8.07Q225.23 8.93 225.23 9.94L225.23 9.94L225.23 9.94Q225.23 10.96 224.74 11.81L224.74 11.81L224.74 11.81Q224.24 12.65 223.39 13.15L223.39 13.15L223.39 13.15Q222.53 13.64 221.47 13.64L221.47 13.64L221.47 13.64Q220.41 13.64 219.56 13.17L219.56 13.17L219.56 13.17Q218.70 12.69 218.21 11.84L218.21 11.84L218.21 11.84Q217.73 11.00 217.73 9.94L217.73 9.94ZM218.57 9.95L218.57 9.95Q218.57 10.76 218.96 11.45L218.96 11.45L218.96 11.45Q219.35 12.13 220.01 12.53L220.01 12.53L220.01 12.53Q220.68 12.92 221.47 12.92L221.47 12.92L221.47 12.92Q222.26 12.92 222.93 12.53L222.93 12.53L222.93 12.53Q223.60 12.13 223.98 11.45L223.98 11.45L223.98 11.45Q224.37 10.76 224.37 9.95L224.37 9.95L224.37 9.95Q224.37 9.14 223.98 8.45L223.98 8.45L223.98 8.45Q223.60 7.76 222.93 7.36L222.93 7.36L222.93 7.36Q222.26 6.97 221.47 6.97L221.47 6.97L221.47 6.97Q220.66 6.97 220.00 7.39L220.00 7.39L220.00 7.39Q219.33 7.81 218.95 8.50L218.95 8.50L218.95 8.50Q218.57 9.18 218.57 9.95L218.57 9.95ZM231.53 6.26L231.53 6.26Q232.51 6.26 233.12 6.85L233.12 6.85L233.12 6.85Q233.73 7.43 233.77 8.37L233.77 8.37L233.77 13.50L232.90 13.50L232.90 8.60L232.90 8.60Q232.87 7.90 232.45 7.46L232.45 7.46L232.45 7.46Q232.04 7.02 231.26 7.00L231.26 7.00L231.26 7.00Q230.54 7.00 229.94 7.34L229.94 7.34L229.94 7.34Q229.34 7.69 228.97 8.31L228.97 8.31L228.97 8.31Q228.60 8.93 228.60 9.72L228.60 9.72L228.60 13.50L227.75 13.50L227.75 6.46L228.49 6.46L228.56 8.03L228.56 8.03Q228.91 7.22 229.73 6.74L229.73 6.74L229.73 6.74Q230.54 6.26 231.53 6.26L231.53 6.26ZM252.29 6.28L250.42 11.14L252.23 13.50L251.21 13.50L250.00 11.93L250.00 11.93Q249.44 12.71 248.46 13.18L248.46 13.18L248.46 13.18Q247.48 13.64 246.28 13.64L246.28 13.64L246.28 13.64Q245.09 13.64 244.14 13.17L244.14 13.17L244.14 13.17Q243.20 12.69 242.66 11.86L242.66 11.86L242.66 11.86Q242.12 11.03 242.12 10.03L242.12 10.03L242.12 10.03Q242.12 9.09 242.61 8.31L242.61 8.31L242.61 8.31Q243.11 7.52 243.93 7.01L243.93 7.01L243.93 7.01Q244.75 6.50 245.72 6.34L245.72 6.34L244.57 4.84L244.57 4.84Q244.24 4.32 244.05 3.84L244.05 3.84L244.05 3.84Q243.86 3.37 243.86 2.79L243.86 2.79L243.86 2.79Q243.86 2.00 244.24 1.35L244.24 1.35L244.24 1.35Q244.62 0.70 245.30 0.33L245.30 0.33L245.30 0.33Q245.97-0.04 246.83-0.04L246.83-0.04L246.83-0.04Q247.63-0.04 248.33 0.25L248.33 0.25L248.33 0.25Q249.03 0.54 249.59 0.99L249.59 0.99L249.16 1.58L249.16 1.58Q247.97 0.72 246.96 0.72L246.96 0.72L246.96 0.72Q246.01 0.72 245.39 1.30L245.39 1.30L245.39 1.30Q244.76 1.89 244.76 2.79L244.76 2.79L244.76 2.79Q244.76 3.33 244.96 3.78L244.96 3.78L244.96 3.78Q245.16 4.23 245.32 4.46L245.32 4.46L249.88 10.42L251.42 6.28L252.29 6.28ZM246.37 12.85L246.37 12.85Q247.39 12.85 248.24 12.41L248.24 12.41L248.24 12.41Q249.08 11.97 249.52 11.29L249.52 11.29L246.22 7.00L246.22 7.00Q245.45 7.04 244.72 7.43L244.72 7.43L244.72 7.43Q243.99 7.83 243.52 8.51L243.52 8.51L243.52 8.51Q243.05 9.18 243.05 10.01L243.05 10.01L243.05 10.01Q243.05 10.84 243.50 11.48L243.50 11.48L243.50 11.48Q243.95 12.13 244.71 12.49L244.71 12.49L244.71 12.49Q245.47 12.85 246.37 12.85L246.37 12.85ZM261.25 13.50L261.25 0.72L264.40 0.72L264.40 0.72Q266.74 0.72 268.28 1.67L268.28 1.67L268.28 1.67Q269.82 2.63 270.53 4.10L270.53 4.10L270.53 4.10Q271.24 5.58 271.24 7.18L271.24 7.18L271.24 7.18Q271.24 9.05 270.39 10.49L270.39 10.49L270.39 10.49Q269.53 11.93 268.10 12.72L268.10 12.72L268.10 12.72Q266.67 13.50 265.01 13.50L265.01 13.50L261.25 13.50ZM262.13 12.65L264.78 12.65L264.78 12.65Q266.33 12.65 267.60 11.98L267.60 11.98L267.60 11.98Q268.87 11.30 269.60 10.05L269.60 10.05L269.60 10.05Q270.34 8.80 270.34 7.13L270.34 7.13L270.34 7.13Q270.34 5.63 269.67 4.37L269.67 4.37L269.67 4.37Q268.99 3.10 267.68 2.34L267.68 2.34L267.68 2.34Q266.36 1.58 264.53 1.58L264.53 1.58L262.13 1.58L262.13 12.65ZM277.15 12.91L277.15 12.91Q278.28 12.91 279.20 12.13L279.20 12.13L279.63 12.74L279.63 12.74Q279.11 13.16 278.45 13.40L278.45 13.40L278.45 13.40Q277.79 13.64 277.13 13.64L277.13 13.64L277.13 13.64Q276.05 13.64 275.19 13.16L275.19 13.16L275.19 13.16Q274.34 12.67 273.86 11.84L273.86 11.84L273.86 11.84Q273.38 11.00 273.38 9.95L273.38 9.95L273.38 9.95Q273.38 8.95 273.89 8.09L273.89 8.09L273.89 8.09Q274.39 7.24 275.26 6.73L275.26 6.73L275.26 6.73Q276.12 6.23 277.15 6.23L277.15 6.23L277.15 6.23Q278.37 6.23 279.23 6.95L279.23 6.95L279.23 6.95Q280.10 7.67 280.49 8.89L280.49 8.89L274.48 11.21L274.48 11.21Q274.82 11.97 275.54 12.44L275.54 12.44L275.54 12.44Q276.25 12.91 277.15 12.91L277.15 12.91ZM277.09 6.95L277.09 6.95Q276.30 6.95 275.63 7.34L275.63 7.34L275.63 7.34Q274.97 7.74 274.59 8.42L274.59 8.42L274.59 8.42Q274.21 9.09 274.21 9.92L274.21 9.92L274.21 9.92Q274.21 10.30 274.28 10.58L274.28 10.58L279.47 8.55L279.47 8.55Q279.13 7.83 278.51 7.39L278.51 7.39L278.51 7.39Q277.90 6.95 277.09 6.95L277.09 6.95ZM286.61 6.26L286.61 6.26Q287.59 6.26 288.20 6.85L288.20 6.85L288.20 6.85Q288.81 7.43 288.85 8.37L288.85 8.37L288.85 13.50L287.98 13.50L287.98 8.60L287.98 8.60Q287.95 7.90 287.53 7.46L287.53 7.46L287.53 7.46Q287.12 7.02 286.34 7.00L286.34 7.00L286.34 7.00Q285.62 7.00 285.02 7.34L285.02 7.34L285.02 7.34Q284.42 7.69 284.05 8.31L284.05 8.31L284.05 8.31Q283.68 8.93 283.68 9.72L283.68 9.72L283.68 13.50L282.83 13.50L282.83 6.46L283.57 6.46L283.64 8.03L283.64 8.03Q283.99 7.22 284.81 6.74L284.81 6.74L284.81 6.74Q285.62 6.26 286.61 6.26L286.61 6.26ZM292.75 3.37L293.62 3.37L293.62 6.55L295.79 6.55L295.79 7.24L293.62 7.24L293.62 13.50L292.75 13.50L292.75 7.24L291.26 7.24L291.26 6.55L292.75 6.55L292.75 3.37ZM297.90 6.46L298.75 6.46L298.75 13.50L297.90 13.50L297.90 6.46ZM297.72 3.87L297.72 3.87Q297.72 3.62 297.91 3.45L297.91 3.45L297.91 3.45Q298.10 3.28 298.35 3.28L298.35 3.28L298.35 3.28Q298.60 3.28 298.78 3.45L298.78 3.45L298.78 3.45Q298.96 3.62 298.96 3.87L298.96 3.87L298.96 3.87Q298.96 4.14 298.78 4.31L298.78 4.31L298.78 4.31Q298.60 4.48 298.35 4.48L298.35 4.48L298.35 4.48Q298.10 4.48 297.91 4.30L297.91 4.30L297.91 4.30Q297.72 4.12 297.72 3.87L297.72 3.87ZM303.61 13.64L303.61 13.64Q302.92 13.64 302.28 13.41L302.28 13.41L302.28 13.41Q301.64 13.18 301.25 12.69L301.25 12.69L301.64 12.13L301.64 12.13Q302.00 12.51 302.51 12.74L302.51 12.74L302.51 12.74Q303.01 12.96 303.55 12.96L303.55 12.96L303.55 12.96Q304.24 12.96 304.70 12.65L304.70 12.65L304.70 12.65Q305.17 12.33 305.17 11.66L305.17 11.66L305.17 11.66Q305.17 11.20 304.92 10.92L304.92 10.92L304.92 10.92Q304.67 10.64 304.34 10.50L304.34 10.50L304.34 10.50Q304.02 10.37 303.30 10.13L303.30 10.13L303.30 10.13Q302.45 9.85 302.00 9.41L302.00 9.41L302.00 9.41Q301.54 8.96 301.54 8.23L301.54 8.23L301.54 8.23Q301.54 7.36 302.14 6.83L302.14 6.83L302.14 6.83Q302.74 6.30 303.68 6.30L303.68 6.30L303.68 6.30Q304.97 6.30 305.78 7.09L305.78 7.09L305.41 7.69L305.41 7.69Q305.14 7.33 304.70 7.16L304.70 7.16L304.70 7.16Q304.25 7.00 303.80 6.98L303.80 6.98L303.80 6.98Q303.26 6.98 302.82 7.28L302.82 7.28L302.82 7.28Q302.38 7.58 302.38 8.12L302.38 8.12L302.38 8.12Q302.38 8.68 302.78 8.96L302.78 8.96L302.78 8.96Q303.17 9.23 303.98 9.52L303.98 9.52L303.98 9.52Q304.97 9.85 305.50 10.25L305.50 10.25L305.50 10.25Q306.02 10.66 306.02 11.48L306.02 11.48L306.02 11.48Q306.02 12.46 305.40 13.05L305.40 13.05L305.40 13.05Q304.78 13.64 303.61 13.64L303.61 13.64ZM309.28 3.37L310.14 3.37L310.14 6.55L312.32 6.55L312.32 7.24L310.14 7.24L310.14 13.50L309.28 13.50L309.28 7.24L307.78 7.24L307.78 6.55L309.28 6.55L309.28 3.37ZM315.23 8.14L315.23 8.14Q315.61 7.29 316.48 6.79L316.48 6.79L316.48 6.79Q317.34 6.28 318.20 6.26L318.20 6.26L318.17 7.09L318.17 7.09Q317.38 7.09 316.71 7.44L316.71 7.44L316.71 7.44Q316.04 7.79 315.66 8.42L315.66 8.42L315.66 8.42Q315.27 9.04 315.27 9.77L315.27 9.77L315.27 13.50L314.42 13.50L314.42 6.46L315.16 6.46L315.23 8.14ZM325.82 6.46L326.65 6.46L322.11 16.88L321.23 16.88L322.74 13.43L319.48 6.46L320.44 6.46L323.17 12.46L325.82 6.46ZM333.99 3.40L336.22 0.58L336.22 5.44L335.63 5.44L335.63 2.09L333.99 4.30L332.33 2.05L332.33 5.44L331.78 5.44L331.78 0.58L333.99 3.40ZM328.00 1.31L328.00 0.77L330.93 0.77L330.93 1.31L329.76 1.31L329.76 5.44L329.15 5.44L329.15 1.31L328.00 1.31Z" transform="rotate(0 168.56999391317368 8.349999725818634)"></path><defs id="SvgjsDefs1162"></defs></svg></g></svg>